<?xml version="1.0" encoding="utf-8"?>
<svg viewBox="0 0 25 25" xmlns="http://www.w3.org/2000/svg">
    <symbol fill="none" viewBox="0 0 24 24" id="icon-burger" xmlns="http://www.w3.org/2000/svg">
        <path d="M2.6665 5H21.3332M2.6665 12H21.3332M2.6665 19H21.3332" stroke="var(--current-color)" stroke-width="var(--icon-stroke-width)" stroke-linecap="round" stroke-linejoin="round"/>
    </symbol>
    <symbol fill="none" viewBox="0 0 24 24" id="icon-messenger" xmlns="http://www.w3.org/2000/svg">
        <path d="M12 12V12.01M8 12V12.01M16 12V12.01M3 20L4.3 16.1C3.17644 14.4382 2.76999 12.4704 3.15622 10.5623C3.54244 8.65415 4.69506 6.93563 6.39977 5.72623C8.10447 4.51683 10.2453 3.89885 12.4241 3.9872C14.6029 4.07554 16.6715 4.86419 18.2453 6.20652C19.819 7.54884 20.7909 9.3535 20.9801 11.2849C21.1693 13.2164 20.563 15.1432 19.2739 16.7071C17.9848 18.271 16.1007 19.3656 13.9718 19.7873C11.8429 20.2091 9.6142 19.9293 7.7 19L3 20Z" stroke="var(--current-color)" stroke-width="var(--icon-stroke-width)" stroke-linecap="round" stroke-linejoin="round"/>
    </symbol>
    <symbol fill="none" viewBox="0 0 24 24" id="icon-bell" xmlns="http://www.w3.org/2000/svg">
        <path d="M6 15V16C6 16.7956 6.31607 17.5587 6.87868 18.1213C7.44129 18.6839 8.20435 19 9 19C9.79565 19 10.5587 18.6839 11.1213 18.1213C11.6839 17.5587 12 16.7956 12 16V15M7 3C7 2.46957 7.21071 1.96086 7.58579 1.58579C7.96086 1.21071 8.46957 1 9 1C9.53043 1 10.0391 1.21071 10.4142 1.58579C10.7893 1.96086 11 2.46957 11 3C12.1484 3.54303 13.1274 4.38833 13.8321 5.4453C14.5367 6.50227 14.9404 7.73107 15 9V12C15.0753 12.6217 15.2954 13.2171 15.6428 13.7381C15.9902 14.2592 16.4551 14.6914 17 15H1C1.54494 14.6914 2.00981 14.2592 2.35719 13.7381C2.70457 13.2171 2.92474 12.6217 3 12V9C3.05956 7.73107 3.4633 6.50227 4.16795 5.4453C4.8726 4.38833 5.85159 3.54303 7 3Z" stroke="var(--current-color)" stroke-width="var(--icon-stroke-width)" stroke-linecap="round" stroke-linejoin="round"/>
    </symbol>
    <symbol fill="none" viewBox="0 0 24 24" id="icon-search" xmlns="http://www.w3.org/2000/svg">
        <path d="M14.9497 14.9497C17.6834 12.2161 17.6834 7.78392 14.9497 5.05025C12.2161 2.31658 7.78392 2.31658 5.05025 5.05025C2.31658 7.78392 2.31658 12.2161 5.05025 14.9497C7.78392 17.6834 12.2161 17.6834 14.9497 14.9497ZM14.9497 14.9497L21 21" stroke="var(--current-color)" stroke-width="var(--icon-stroke-width)" stroke-linecap="round" stroke-linejoin="round"/>
    </symbol>
    <symbol fill="none" viewBox="0 0 24 24" id="icon-header-search" xmlns="http://www.w3.org/2000/svg">
        <path d="M21.1318 20.6317L16.8892 16.3891" stroke="black" stroke-width="2" stroke-linecap="round"/>
        <path d="M17.5964 4.36828C21.1111 7.883 21.1111 13.5815 17.5964 17.0962C14.0817 20.6109 8.38318 20.6109 4.86846 17.0962C1.35374 13.5815 1.35374 7.883 4.86846 4.36828C8.38318 0.853559 14.0817 0.853559 17.5964 4.36828Z" fill="#C7CCD1"/>
    </symbol>
    <symbol fill="none" viewBox="0 0 24 24" id="icon-header-bell" xmlns="http://www.w3.org/2000/svg">
        <circle cx="12" cy="18" r="4" fill="black"/>
        <path d="M18.7491 9.00496V9.70957C18.7491 10.5552 18.9903 11.3818 19.4422 12.0854L20.5496 13.8095C21.5612 15.3843 20.789 17.5249 19.0296 18.0229C14.4273 19.3257 9.57274 19.3257 4.97036 18.0229C3.21105 17.5249 2.43882 15.3843 3.45036 13.8095L4.5578 12.0854C5.00972 11.3818 5.25087 10.5552 5.25087 9.70957V9.00496C5.25087 5.13623 8.27256 2 12 2C15.7274 2 18.7491 5.13623 18.7491 9.00496Z" fill="#C7CCD1"/>
    </symbol>
    <symbol fill="none" viewBox="0 0 24 24" id="icon-header-messenger" xmlns="http://www.w3.org/2000/svg">
        <path d="M12 22C17.5228 22 22 17.5228 22 12C22 6.47715 17.5228 2 12 2C6.47715 2 2 6.47715 2 12C2 13.5213 2.33973 14.9633 2.94746 16.2543C3.37383 17.1599 3.51978 18.2005 3.14801 19.13L2.86658 19.8336C2.54005 20.6499 3.35013 21.4599 4.16645 21.1334L4.87002 20.852C5.79945 20.4802 6.84005 20.6262 7.74574 21.0525C9.03666 21.6603 10.4787 22 12 22Z" fill="#C7CCD1"/>
        <path d="M13 12C13 12.5523 12.5523 13 12 13C11.4477 13 11 12.5523 11 12C11 11.4477 11.4477 11 12 11C12.5523 11 13 11.4477 13 12Z" fill="black"/>
        <path d="M9 12C9 12.5523 8.55228 13 8 13C7.44772 13 7 12.5523 7 12C7 11.4477 7.44772 11 8 11C8.55228 11 9 11.4477 9 12Z" fill="black"/>
        <path d="M17 12C17 12.5523 16.5523 13 16 13C15.4477 13 15 12.5523 15 12C15 11.4477 15.4477 11 16 11C16.5523 11 17 11.4477 17 12Z" fill="black"/>
    </symbol>
    <symbol fill="none" viewBox="0 0 24 24" id="icon-bottom-outline-arrow" xmlns="http://www.w3.org/2000/svg">
        <path d="M6 8L10 12L14 8" stroke="var(--current-color)" stroke-width="var(--icon-stroke-width)" stroke-linecap="round" stroke-linejoin="round"/>
    </symbol>
    <symbol fill="none" viewBox="0 0 24 24" id="icon-flag-ru" xmlns="http://www.w3.org/2000/svg">
        <rect x="2" y="15" width="20" height="5" fill="#FF0000"/>
        <rect x="2" y="4" width="20" height="5" fill="white"/>
        <rect x="2" y="9" width="20" height="6" fill="#0066CC"/>
        <rect x="2.5" y="4.5" width="19" height="15" stroke="black" stroke-opacity="0.12"/>
    </symbol>
    <symbol fill="none" viewBox="0 0 24 24" id="icon-flag-en" xmlns="http://www.w3.org/2000/svg">
        <rect x="2" y="4" width="20" height="16" fill="white"/>
        <path d="M2 4H22V4.98958H2V4Z" fill="#FF0000"/>
        <path d="M2 7H22V7.98958H2V7Z" fill="#FF0000"/>
        <path d="M2 10H22V10.9896H2V10Z" fill="#FF0000"/>
        <path d="M2 13H22V13.9896H2V13Z" fill="#FF0000"/>
        <path d="M2 16H22V16.9896H2V16Z" fill="#FF0000"/>
        <path d="M2 19H22V19.9896H2V19Z" fill="#FF0000"/>
        <rect x="2" y="4" width="11" height="10" fill="#0066CC"/>
        <rect x="2.5" y="4.5" width="19" height="15" stroke="black" stroke-opacity="0.12"/>
        <path d="M3 5H4V6H3V5Z" fill="white"/>
        <path d="M3 7H4V8H3V7Z" fill="white"/>
        <path d="M3 9H4V10H3V9Z" fill="white"/>
        <path d="M3 11H4V12H3V11Z" fill="white"/>
        <path d="M4 6H5V7H4V6Z" fill="white"/>
        <path d="M4 8H5V9H4V8Z" fill="white"/>
        <path d="M4 10H5V11H4V10Z" fill="white"/>
        <path d="M4 12H5V13H4V12Z" fill="white"/>
        <path d="M6 6H7V7H6V6Z" fill="white"/>
        <path d="M6 8H7V9H6V8Z" fill="white"/>
        <path d="M6 10H7V11H6V10Z" fill="white"/>
        <path d="M6 12H7V13H6V12Z" fill="white"/>
        <path d="M8 6H9V7H8V6Z" fill="white"/>
        <path d="M8 8H9V9H8V8Z" fill="white"/>
        <path d="M8 10H9V11H8V10Z" fill="white"/>
        <path d="M8 12H9V13H8V12Z" fill="white"/>
        <path d="M10 6H11V7H10V6Z" fill="white"/>
        <path d="M10 8H11V9H10V8Z" fill="white"/>
        <path d="M10 10H11V11H10V10Z" fill="white"/>
        <path d="M10 12H11V13H10V12Z" fill="white"/>
        <path d="M5 5H6V6H5V5Z" fill="white"/>
        <path d="M5 7H6V8H5V7Z" fill="white"/>
        <path d="M5 9H6V10H5V9Z" fill="white"/>
        <path d="M5 11H6V12H5V11Z" fill="white"/>
        <path d="M7 5H8V6H7V5Z" fill="white"/>
        <path d="M7 7H8V8H7V7Z" fill="white"/>
        <path d="M7 9H8V10H7V9Z" fill="white"/>
        <path d="M7 11H8V12H7V11Z" fill="white"/>
        <path d="M9 5H10V6H9V5Z" fill="white"/>
        <path d="M9 7H10V8H9V7Z" fill="white"/>
        <path d="M9 9H10V10H9V9Z" fill="white"/>
        <path d="M9 11H10V12H9V11Z" fill="white"/>
        <path d="M11 5H12V6H11V5Z" fill="white"/>
        <path d="M11 7H12V8H11V7Z" fill="white"/>
        <path d="M11 9H12V10H11V9Z" fill="white"/>
        <path d="M11 11H12V12H11V11Z" fill="white"/>
    </symbol>
    <symbol fill="none" viewBox="0 0 24 24" id="icon-home" xmlns="http://www.w3.org/2000/svg">
        <path fill-rule="evenodd" clip-rule="evenodd" d="M9.50117 3.86139C10.962 2.71287 13.0378 2.71287 14.4987 3.86139L22.6246 10.2499C23.0559 10.5889 23.1258 11.2073 22.7808 11.6311C22.4358 12.055 21.8065 12.1237 21.3752 11.7846L21 11.4896V21H23V23H1V21H3V11.4895L2.62467 11.7846C2.1934 12.1237 1.56411 12.055 1.21911 11.6311C0.874098 11.2073 0.944019 10.5889 1.37528 10.2499L9.50117 3.86139ZM12 12C13.6569 12 15 10.6569 15 9C15 7.34315 13.6569 6 12 6C10.3431 6 9 7.34315 9 9C9 10.6569 10.3431 12 12 12Z" fill="#C7CCD1"/>
        <path d="M19 7.40024V4C19 3.44772 18.5523 3 18 3H17C16.4477 3 16 3.44772 16 4V5.04168L19 7.40024Z" fill="#818C98"/>
        <circle cx="12" cy="9" r="1.5" fill="#818C98"/>
        <path d="M8 17C8 16.07 8 15.605 8.10222 15.2235C8.37962 14.1883 9.18827 13.3796 10.2235 13.1022C10.605 13 11.07 13 12 13C12.93 13 13.395 13 13.7765 13.1022C14.8117 13.3796 15.6204 14.1883 15.8978 15.2235C16 15.605 16 16.07 16 17V21H8V17Z" fill="#818C98"/>
    </symbol>
    <symbol fill="none" viewBox="0 0 24 24" id="icon-home" xmlns="http://www.w3.org/2000/svg">
        <path fill-rule="evenodd" clip-rule="evenodd" d="M9.50117 3.86139C10.962 2.71287 13.0378 2.71287 14.4987 3.86139L22.6246 10.2499C23.0559 10.5889 23.1258 11.2073 22.7808 11.6311C22.4358 12.055 21.8065 12.1237 21.3752 11.7846L21 11.4896V21H23V23H1V21H3V11.4895L2.62467 11.7846C2.1934 12.1237 1.56411 12.055 1.21911 11.6311C0.874098 11.2073 0.944019 10.5889 1.37528 10.2499L9.50117 3.86139ZM12 12C13.6569 12 15 10.6569 15 9C15 7.34315 13.6569 6 12 6C10.3431 6 9 7.34315 9 9C9 10.6569 10.3431 12 12 12Z" fill="#C7CCD1"/>
        <path d="M19 7.40024V4C19 3.44772 18.5523 3 18 3H17C16.4477 3 16 3.44772 16 4V5.04168L19 7.40024Z" fill="#818C98"/>
        <circle cx="12" cy="9" r="1.5" fill="#818C98"/>
        <path d="M8 17C8 16.07 8 15.605 8.10222 15.2235C8.37962 14.1883 9.18827 13.3796 10.2235 13.1022C10.605 13 11.07 13 12 13C12.93 13 13.395 13 13.7765 13.1022C14.8117 13.3796 15.6204 14.1883 15.8978 15.2235C16 15.605 16 16.07 16 17V21H8V17Z" fill="#818C98"/>
    </symbol>
    <symbol fill="none" viewBox="0 0 24 24" id="icon-video" xmlns="http://www.w3.org/2000/svg">
        <path d="M2 10.05C2 7.20255 2 5.77882 2.56293 4.69513C3.03731 3.78191 3.78191 3.03731 4.69513 2.56293C5.77882 2 7.20255 2 10.05 2H13.95C16.7975 2 18.2212 2 19.3049 2.56293C20.2181 3.03731 20.9627 3.78191 21.4371 4.69513C22 5.77882 22 7.20255 22 10.05V13.95C22 16.7975 22 18.2212 21.4371 19.3049C20.9627 20.2181 20.2181 20.9627 19.3049 21.4371C18.2212 22 16.7975 22 13.95 22H10.05C7.20255 22 5.77882 22 4.69513 21.4371C3.78191 20.9627 3.03731 20.2181 2.56293 19.3049C2 18.2212 2 16.7975 2 13.95V10.05Z" fill="#818C98"/>
        <path d="M6.00001 21.8447C5.49294 21.7614 5.07333 21.6335 4.69514 21.4371C3.78193 20.9627 3.03732 20.2181 2.56295 19.3049C2.36649 18.9267 2.2386 18.5071 2.15533 18H6.00001V21.8447Z" fill="#C7CCD1"/>
        <path d="M10.05 22H11V18H8.00001V21.9883C8.59058 22 9.26638 22 10.05 22Z" fill="#C7CCD1"/>
        <path d="M13 22H13.95C14.7336 22 15.4095 22 16 21.9883V18H13V22Z" fill="#C7CCD1"/>
        <path d="M21.8447 18C21.7614 18.5071 21.6335 18.9267 21.4371 19.3049C20.9627 20.2181 20.2181 20.9627 19.3049 21.4371C18.9267 21.6335 18.5071 21.7614 18 21.8447V18H21.8447Z" fill="#C7CCD1"/>
        <path d="M18 2.15532C18.5071 2.23858 18.9267 2.36648 19.3049 2.56293C20.2181 3.03731 20.9627 3.78191 21.4371 4.69513C21.6335 5.07332 21.7614 5.49292 21.8447 6H18V2.15532Z" fill="#C7CCD1"/>
        <path d="M13.95 2H13V6H16V2.01173C15.4095 2 14.7336 2 13.95 2Z" fill="#C7CCD1"/>
        <path d="M11 2H10.05C9.26638 2 8.59058 2 8.00001 2.01173V6H11V2Z" fill="#C7CCD1"/>
        <path d="M6.00001 2.15532V6H2.15533C2.2386 5.49292 2.36649 5.07332 2.56295 4.69513C3.03732 3.78191 3.78193 3.03731 4.69514 2.56293C5.07333 2.36648 5.49294 2.23858 6.00001 2.15532Z" fill="#C7CCD1"/>
        <path d="M14 12C14 11.4722 13.4704 11.1162 12.4112 10.4043C11.3375 9.68271 10.8006 9.3219 10.4003 9.58682C10 9.85174 10 10.5678 10 12C10 13.4322 10 14.1483 10.4003 14.4132C10.8006 14.6781 11.3375 14.3173 12.4112 13.5957C13.4704 12.8838 14 12.5278 14 12Z" fill="#C7CCD1"/>
    </symbol>
    <symbol fill="none" viewBox="0 0 24 24" id="icon-music" xmlns="http://www.w3.org/2000/svg">
        <path d="M13 12.508L21 9.108V14.3368C20.5454 14.1208 20.0368 14 19.5 14C17.567 14 16 15.567 16 17.5C16 19.433 17.567 21 19.5 21C21.433 21 23 19.433 23 17.5C23 17.4983 23 17.4965 23 17.4948L23 7.94625C23 6.80342 23 5.84496 22.9161 5.08131C22.9042 4.97338 22.8902 4.86609 22.8747 4.76597C22.7939 4.24426 22.6511 3.75757 22.3753 3.35115C22.2375 3.14794 22.0664 2.96481 21.8533 2.80739C21.8133 2.77788 21.7719 2.74927 21.7289 2.7216L21.7203 2.71608C20.9823 2.2454 20.1527 2.27906 19.2981 2.48777C17.953 2.81624 16.6491 3.3696 15.3594 3.91693C14.9066 4.10908 14.4556 4.30048 14.0052 4.48115C13.4162 4.71737 12.9172 4.91751 12.5255 5.1248C12.1088 5.34535 11.7499 5.60548 11.4807 5.99311C11.2115 6.38075 11.0997 6.7985 11.0483 7.25204C11 7.67831 11 8.19669 11 8.80854V16.3368C10.5454 16.1208 10.0368 16 9.5 16C7.567 16 6 17.567 6 19.5C6 21.433 7.567 23 9.5 23C11.433 23 13 21.433 13 19.5V12.508Z" fill="#C7CCD1"/>
        <path d="M8 6.15153L8 10.5C8 12.433 6.433 14 4.5 14C2.567 14 1 12.433 1 10.5C1 8.567 2.567 7 4.5 7C5.0368 7 5.54537 7.12085 6 7.33682V2C6 1.44772 6.44772 1 7 1C7.55228 1 8 1.44771 8 2C8 2.40549 8.24978 3.21456 8.73461 3.94916C8.96672 4.30084 9.21904 4.58214 9.46145 4.76643C9.70484 4.95146 9.88465 5 10 5C10.5523 5 11 5.44772 11 6C11 6.55228 10.5523 7 10 7C9.31535 7 8.72016 6.71521 8.25105 6.35857C8.16492 6.29309 8.08122 6.22388 8 6.15153Z" fill="#818C98"/>
    </symbol>
    <symbol fill="none" viewBox="0 0 24 24" id="icon-store" xmlns="http://www.w3.org/2000/svg">
        <rect x="4" y="9" width="16" height="12" fill="#C7CCD1"/>
        <path d="M16.5834 2H7.4166C6.19902 2 5.59023 2 5.10099 2.2987C4.61175 2.5974 4.33949 3.13531 3.79497 4.21114L2.37413 7.75929C2.04586 8.57905 1.75864 9.54525 2.31122 10.2375C2.68193 10.7019 3.25659 11 3.90175 11C5.01988 11 5.92631 10.1046 5.92631 9C5.92631 10.1046 6.83273 11 7.95086 11C9.06899 11 9.97541 10.1046 9.97541 9C9.97541 10.1046 10.8818 11 12 11C13.1181 11 14.0245 10.1046 14.0245 9C14.0245 10.1046 14.9309 11 16.0491 11C17.1672 11 18.0736 10.1046 18.0736 9C18.0736 10.1046 18.98 11 20.0982 11C20.7433 11 21.318 10.7019 21.6888 10.2375C22.2414 9.54525 21.9541 8.57905 21.6259 7.75929L20.205 4.21114C19.6605 3.13531 19.3883 2.5974 18.899 2.2987C18.4098 2 17.801 2 16.5834 2Z" fill="#818C98"/>
        <path d="M14.5581 21H9.44186L3.81395 21L1.76744 21C1.3436 21 1 21.4477 1 22C1 22.5523 1.3436 23 1.76744 23H22.2326C22.6564 23 23 22.5523 23 22C23 21.4477 22.6564 21 22.2326 21L20.186 21L14.5581 21Z" fill="#818C98"/>
        <path d="M9 18C9 16.3431 10.3431 15 12 15C13.6569 15 15 16.3431 15 18V21H9V18Z" fill="#818C98"/>
    </symbol>
    <symbol fill="none" viewBox="0 0 24 24" id="icon-case" xmlns="http://www.w3.org/2000/svg">
        <path d="M21 12.2999V11.2999L3 11.2999V12.2999C3.0009 15.9752 3.03489 19.688 4.318 20.8285C5.63601 22.0001 7.75733 22.0001 12 22.0001C16.2426 22.0001 18.3639 22.0001 19.682 20.8285C20.9651 19.688 20.9991 15.9752 21 12.2999Z" fill="#818C98"/>
        <path fill-rule="evenodd" clip-rule="evenodd" d="M10.4142 2C9.08089 2 8.00001 3.08088 8.00001 4.41421C8.00001 4.52407 7.95637 4.62943 7.87869 4.70711L6.58577 6.00003C5.04504 6.00066 4.24772 6.01478 3.63268 6.32971C3.07242 6.61659 2.61659 7.07242 2.32971 7.63268C2 8.27658 2 9.12027 2 10.8077C2 11.2366 2 11.4511 2.07336 11.6319C2.13743 11.7898 2.24079 11.9288 2.37363 12.0355C2.52574 12.1577 2.73118 12.2194 3.14206 12.3426L8.5 13.95V15.1627C8.5 15.9283 8.95939 16.6341 9.68682 16.9296L10.2469 17.1572C11.3719 17.6143 12.6281 17.6143 13.7531 17.1572L14.3132 16.9296C15.0406 16.6341 15.5 15.9283 15.5 15.1627V13.95L20.8579 12.3426C21.2688 12.2194 21.4743 12.1577 21.6264 12.0355C21.7592 11.9288 21.8626 11.7898 21.9266 11.6319C22 11.4511 22 11.2366 22 10.8077C22 9.12027 22 8.27658 21.6703 7.63268C21.3834 7.07242 20.9276 6.61659 20.3673 6.32971C19.7523 6.01478 18.955 6.00066 17.4143 6.00003L16.1213 4.70711C16.0437 4.62943 16 4.52407 16 4.41421C16 3.08088 14.9191 2 13.5858 2H10.4142ZM14.5939 6C14.2122 5.56188 14 4.99899 14 4.41421C14 4.18545 13.8146 4 13.5858 4H10.4142C10.1855 4 10 4.18545 10 4.41421C10 4.99899 9.78786 5.56188 9.40617 6H14.5939Z" fill="#C7CCD1"/>
        <path fill-rule="evenodd" clip-rule="evenodd" d="M13.6 12H10.4C10.1791 12 10 12.1819 10 12.4063V14.1627C10 14.3288 10.0996 14.4782 10.2514 14.54L10.8438 14.7675C11.6067 15.0775 12.2371 15.0775 13 14.7675L13.7486 14.54C13.9004 14.4782 14 14.3288 14 14.1627V12.4063C14 12.1819 13.8209 12 13.6 12Z" fill="#818C98"/>
    </symbol>
    <symbol fill="none" viewBox="0 0 24 24" id="icon-buildings" xmlns="http://www.w3.org/2000/svg">
        <path fill-rule="evenodd" clip-rule="evenodd" d="M2 9.83C2 8.12153 2 7.26729 2.33776 6.61708C2.62239 6.06915 3.06915 5.62239 3.61708 5.33776C4.26729 5 5.12153 5 6.83 5H9V22H2V9.83ZM4 8C4 7.44772 4.44772 7 5 7H8V9H5C4.44772 9 4 8.55228 4 8ZM5 10C4.44772 10 4 10.4477 4 11C4 11.5523 4.44772 12 5 12H8V10H5ZM4 14C4 13.4477 4.44772 13 5 13H8V15H5C4.44772 15 4 14.5523 4 14Z" fill="#818C98"/>
        <path fill-rule="evenodd" clip-rule="evenodd" d="M22 9.83C22 8.12153 22 7.26729 21.6622 6.61708C21.3776 6.06915 20.9309 5.62239 20.3829 5.33776C19.7327 5 18.8785 5 17.17 5H15V22H22V9.83ZM20 8C20 7.44772 19.5523 7 19 7H16V9H19C19.5523 9 20 8.55228 20 8ZM19 10C19.5523 10 20 10.4477 20 11C20 11.5523 19.5523 12 19 12H16V10H19ZM20 14C20 13.4477 19.5523 13 19 13H16V15H19C19.5523 15 20 14.5523 20 14Z" fill="#818C98"/>
        <path fill-rule="evenodd" clip-rule="evenodd" d="M7 6.83C7 5.12153 7 4.26729 7.33776 3.61708C7.62239 3.06915 8.06915 2.62239 8.61708 2.33776C9.26729 2 10.1215 2 11.83 2H12.17C13.8785 2 14.7327 2 15.3829 2.33776C15.9309 2.62239 16.3776 3.06915 16.6622 3.61708C17 4.26729 17 5.12153 17 6.83V21H22C22.5523 21 23 21.4477 23 22C23 22.5523 22.5523 23 22 23H2C1.44772 23 1 22.5523 1 22C1 21.4477 1.44772 21 2 21H7V6.83ZM10 5C9.44772 5 9 5.44772 9 6C9 6.55228 9.44772 7 10 7H14C14.5523 7 15 6.55228 15 6C15 5.44772 14.5523 5 14 5H10ZM9 9C9 8.44771 9.44772 8 10 8H14C14.5523 8 15 8.44771 15 9C15 9.55229 14.5523 10 14 10H10C9.44772 10 9 9.55229 9 9ZM10 11C9.44772 11 9 11.4477 9 12C9 12.5523 9.44772 13 10 13H14C14.5523 13 15 12.5523 15 12C15 11.4477 14.5523 11 14 11H10ZM9 15C9 14.4477 9.44772 14 10 14H14C14.5523 14 15 14.4477 15 15C15 15.5523 14.5523 16 14 16H10C9.44772 16 9 15.5523 9 15ZM12 18C11.4477 18 11 18.4477 11 19V21H13V19C13 18.4477 12.5523 18 12 18Z" fill="#C7CCD1"/>
    </symbol>
    <symbol fill="none" viewBox="0 0 24 24" id="icon-group" xmlns="http://www.w3.org/2000/svg">
        <circle cx="15" cy="7" r="3" fill="#C7CCD1"/>
        <path d="M22 15.5C22 17.433 22 19 15 19C8 19 8 17.433 8 15.5C8 13.567 11.134 12 15 12C18.866 12 22 13.567 22 15.5Z" fill="#C7CCD1"/>
        <circle cx="10" cy="6" r="4" fill="#818C98"/>
        <path d="M18 17.5C18 19.9853 18 22 10 22C2 22 2 19.9853 2 17.5C2 15.0147 5.58172 13 10 13C14.4183 13 18 15.0147 18 17.5Z" fill="#818C98"/>
    </symbol>
    <symbol fill="none" viewBox="0 0 24 24" id="icon-profile" xmlns="http://www.w3.org/2000/svg">
        <path d="M2 10C2 6.22876 2 4.34315 3.17157 3.17157C4.34315 2 6.22876 2 10 2H14C17.7712 2 19.6569 2 20.8284 3.17157C22 4.34315 22 6.22876 22 10V14C22 17.7712 22 19.6569 20.8284 20.8284C19.6569 22 17.7712 22 14 22H10C6.22876 22 4.34315 22 3.17157 20.8284C2 19.6569 2 17.7712 2 14V10Z" fill="#C7CCD1"/>
        <path d="M12 13C14.2091 13 16 11.2091 16 9C16 6.79086 14.2091 5 12 5C9.79086 5 8 6.79086 8 9C8 11.2091 9.79086 13 12 13Z" fill="#818C98"/>
        <path d="M14 22C16.978 22 18.7802 22 19.9835 21.4231C20 21.1252 20 20.8164 20 20.5C20 18.0147 16.4183 16 12 16C7.58172 16 4 18.0147 4 20.5C4 20.8164 4 21.1251 4.01651 21.4231C5.21978 22 7.02198 22 10 22H14Z" fill="#818C98"/>
    </symbol>
    <symbol fill="none" viewBox="0 0 24 24" id="icon-settings" xmlns="http://www.w3.org/2000/svg">
        <path fill-rule="evenodd" clip-rule="evenodd" d="M12.4277 2C11.3139 2 10.2995 2.6007 8.27081 3.80211L7.58466 4.20846C5.55594 5.40987 4.54158 6.01057 3.98466 7C3.42773 7.98943 3.42773 9.19084 3.42773 11.5937V12.4063C3.42773 14.8092 3.42773 16.0106 3.98466 17C4.54158 17.9894 5.55594 18.5901 7.58466 19.7915L8.27081 20.1979C10.2995 21.3993 11.3139 22 12.4277 22C13.5416 22 14.5559 21.3993 16.5847 20.1979L17.2708 19.7915C19.2995 18.5901 20.3139 17.9894 20.8708 17C21.4277 16.0106 21.4277 14.8092 21.4277 12.4063V11.5937C21.4277 9.19084 21.4277 7.98943 20.8708 7C20.3139 6.01057 19.2995 5.40987 17.2708 4.20846L16.5847 3.80211C14.5559 2.6007 13.5416 2 12.4277 2Z" fill="#C7CCD1"/>
        <path d="M12.4277 8.25C10.3567 8.25 8.67773 9.92893 8.67773 12C8.67773 14.0711 10.3567 15.75 12.4277 15.75C14.4988 15.75 16.1777 14.0711 16.1777 12C16.1777 9.92893 14.4988 8.25 12.4277 8.25Z" fill="#818C98"/>
    </symbol>
    <symbol fill="none" viewBox="0 0 24 24" id="icon-subscriptions" xmlns="http://www.w3.org/2000/svg">
        <path fill-rule="evenodd" clip-rule="evenodd" d="M14 22H10C6.22876 22 4.34315 22 3.17157 20.8284C2 19.6569 2 17.7712 2 14V10C2 6.22876 2 4.34315 3.17157 3.17157C4.34315 2 6.23869 2 10.0298 2C10.6358 2 11.1214 2 11.53 2.01666C11.5166 2.09659 11.5095 2.17813 11.5092 2.26057L11.5 5.09497C11.4999 6.19207 11.4998 7.16164 11.6049 7.94316C11.7188 8.79028 11.9803 9.63726 12.6716 10.3285C13.3628 11.0198 14.2098 11.2813 15.0569 11.3952C15.8385 11.5003 16.808 11.5002 17.9051 11.5001L18 11.5001H21.9574C22 12.0344 22 12.6901 22 13.5629V14C22 17.7712 22 19.6569 20.8284 20.8284C19.6569 22 17.7712 22 14 22Z" fill="#C7CCD1"/>
        <path d="M10.5606 15.4983C10.8358 15.1887 10.8079 14.7146 10.4983 14.4395C10.1887 14.1643 9.71464 14.1921 9.43945 14.5017L7.33334 16.8711L6.56056 16.0017C6.28538 15.6921 5.81132 15.6643 5.50174 15.9395C5.19215 16.2146 5.16426 16.6887 5.43945 16.9983L6.77278 18.4983C6.91511 18.6584 7.11911 18.75 7.33334 18.75C7.54757 18.75 7.75157 18.6584 7.8939 18.4983L10.5606 15.4983Z" fill="#818C98"/>
        <path d="M11.5092 2.26023L11.5 5.09464C11.4999 6.19174 11.4998 7.16131 11.6049 7.94283C11.7188 8.78994 11.9803 9.63693 12.6716 10.3282C13.3629 11.0195 14.2098 11.281 15.057 11.3949C15.8385 11.4999 16.808 11.4999 17.9051 11.4998L21.9574 11.4998C21.9698 11.6553 21.9786 11.8212 21.9848 11.9997H22C22 11.7322 22 11.5984 21.9901 11.441C21.9335 10.5464 21.5617 9.52138 21.0315 8.79866C20.9382 8.67144 20.8743 8.59507 20.7467 8.44232C19.9542 7.49373 18.911 6.31206 18 5.49967C17.1892 4.77659 16.0787 3.9855 15.1101 3.33863C14.2781 2.78288 13.862 2.50501 13.2915 2.29848C13.1403 2.24372 12.9408 2.18324 12.7846 2.1448C12.4006 2.05027 12.0268 2.01739 11.5 2.006L11.5092 2.26023Z" fill="#818C98"/>
    </symbol>
    <symbol fill="none" viewBox="0 0 24 24" id="icon-friends" xmlns="http://www.w3.org/2000/svg">
        <circle cx="16" cy="6" r="3" fill="#818C98"/>
        <circle cx="8" cy="6" r="3" fill="#C7CCD1"/>
        <path d="M2 15C2 13.1144 2 12.1716 2.58579 11.5858C3.17157 11 4.11438 11 6 11H9C9.94281 11 10.4142 11 10.7071 11.2929C11 11.5858 11 12.0572 11 13V19C11 19.9428 11 20.4142 10.7071 20.7071C10.4142 21 9.94281 21 9 21H4C3.05719 21 2.58579 21 2.29289 20.7071C2 20.4142 2 19.9428 2 19V15Z" fill="#C7CCD1"/>
        <path d="M22 15C22 13.1144 22 12.1716 21.4142 11.5858C20.8284 11 19.8856 11 18 11H15C14.0572 11 13.5858 11 13.2929 11.2929C13 11.5858 13 12.0572 13 13V19C13 19.9428 13 20.4142 13.2929 20.7071C13.5858 21 14.0572 21 15 21H20C20.9428 21 21.4142 21 21.7071 20.7071C22 20.4142 22 19.9428 22 19V15Z" fill="#818C98"/>
        <path d="M6 12C6 13.1046 5.10457 14 4 14C2.89543 14 2 13.1046 2 12C2 10.8954 2.89543 10 4 10C5.10457 10 6 10.8954 6 12Z" fill="#818C98"/>
        <path d="M22 12C22 13.1046 21.1046 14 20 14C18.8954 14 18 13.1046 18 12C18 10.8954 18.8954 10 20 10C21.1046 10 22 10.8954 22 12Z" fill="#C7CCD1"/>
    </symbol>
    <symbol fill="none" viewBox="0 0 24 24" id="icon-logout" xmlns="http://www.w3.org/2000/svg">
        <path d="M15.9998 2L14.9998 2C12.1714 2 10.7576 2.00023 9.87891 2.87891C9.00023 3.75759 9.00023 5.1718 9.00023 8.00023L9.00023 16.0002C9.00023 18.8287 9.00023 20.2429 9.87891 21.1215C10.7574 22 12.1706 22 14.9976 22L14.9998 22L15.9998 22C18.8282 22 20.2424 22 21.1211 21.1213C21.9998 20.2426 21.9998 18.8284 21.9998 16L21.9998 8L21.9998 7.99998C21.9998 5.17157 21.9998 3.75736 21.1211 2.87868C20.2424 2 18.8282 2 15.9998 2Z" fill="#C7CCD1"/>
        <path d="M2 12H15M2 12L5 15M2 12L5 9" stroke="#818C98" stroke-width="2" stroke-linecap="round" stroke-linejoin="round"/>
    </symbol>
    <symbol fill="none" viewBox="0 0 24 24" id="icon-new-post" xmlns="http://www.w3.org/2000/svg">
        <rect x="2.5" y="2" width="16" height="16" rx="3" fill="#F4F5F6"/>
        <path d="M17.5 13L17.5 21M13.5 17H21.5" stroke="#818C98" stroke-width="2" stroke-linecap="round"/>
        <path d="M7.5 7H13.5M7.5 10H13.5M7.5 13H13.5" stroke="#818C98" stroke-width="2" stroke-linecap="round"/>
    </symbol>
</svg>
